<?xml version="1.0" encoding="UTF-8" standalone="no"?>
<!DOCTYPE svg PUBLIC "-//W3C//DTD SVG 1.1//EN"
 "http://www.w3.org/Graphics/SVG/1.1/DTD/svg11.dtd">
<!-- Generated by graphviz version 2.38.0 (20140413.2041)
 -->
<!-- Title: models_diagram Pages: 1 -->
<svg width="1180pt" height="160pt"
 viewBox="0.00 0.00 1180.00 160.00" xmlns="http://www.w3.org/2000/svg" xmlns:xlink="http://www.w3.org/1999/xlink">
<g id="graph0" class="graph" transform="scale(1 1) rotate(0) translate(4 156)">
<title>models_diagram</title>
<polygon fill="none" stroke="none" points="-4,4 -4,-156 1176,-156 1176,4 -4,4"/>
<!-- _diagram_info -->
<g id="node1" class="node"><title>_diagram_info</title>
<text text-anchor="start" x="8" y="-100.6" font-family="Times,serif" font-size="13.00">Models diagram</text>
<text text-anchor="start" x="8" y="-86.6" font-family="Times,serif" font-size="13.00">Date: Feb 22 2017 &#45; 11:42</text>
<text text-anchor="start" x="8" y="-72.6" font-family="Times,serif" font-size="13.00">Migration version: 20170222140850</text>
<text text-anchor="start" x="8" y="-58.6" font-family="Times,serif" font-size="13.00">Generated by RailRoady 1.5.2</text>
<text text-anchor="start" x="8" y="-44.6" font-family="Times,serif" font-size="13.00">http://railroady.prestonlee.com</text>
</g>
<!-- Category -->
<g id="node2" class="node"><title>Category</title>
<path fill="none" stroke="black" d="M244,-30.5C244,-30.5 464,-30.5 464,-30.5 470,-30.5 476,-36.5 476,-42.5 476,-42.5 476,-109.5 476,-109.5 476,-115.5 470,-121.5 464,-121.5 464,-121.5 244,-121.5 244,-121.5 238,-121.5 232,-115.5 232,-109.5 232,-109.5 232,-42.5 232,-42.5 232,-36.5 238,-30.5 244,-30.5"/>
<text text-anchor="middle" x="354" y="-106.3" font-family="Times,serif" font-size="14.00">Category</text>
<polyline fill="none" stroke="black" points="232,-98.5 476,-98.5 "/>
<text text-anchor="start" x="240" y="-83.3" font-family="Times,serif" font-size="14.00">id :integer</text>
<text text-anchor="start" x="240" y="-68.3" font-family="Times,serif" font-size="14.00">name :character varying</text>
<text text-anchor="start" x="240" y="-53.3" font-family="Times,serif" font-size="14.00">created_at :timestamp without time zone</text>
<text text-anchor="start" x="240" y="-38.3" font-family="Times,serif" font-size="14.00">updated_at :timestamp without time zone</text>
</g>
<!-- Item -->
<g id="node3" class="node"><title>Item</title>
<path fill="none" stroke="black" d="M506,-0.5C506,-0.5 726,-0.5 726,-0.5 732,-0.5 738,-6.5 738,-12.5 738,-12.5 738,-139.5 738,-139.5 738,-145.5 732,-151.5 726,-151.5 726,-151.5 506,-151.5 506,-151.5 500,-151.5 494,-145.5 494,-139.5 494,-139.5 494,-12.5 494,-12.5 494,-6.5 500,-0.5 506,-0.5"/>
<text text-anchor="middle" x="616" y="-136.3" font-family="Times,serif" font-size="14.00">Item</text>
<polyline fill="none" stroke="black" points="494,-128.5 738,-128.5 "/>
<text text-anchor="start" x="502" y="-113.3" font-family="Times,serif" font-size="14.00">id :integer</text>
<text text-anchor="start" x="502" y="-98.3" font-family="Times,serif" font-size="14.00">serie :integer</text>
<text text-anchor="start" x="502" y="-83.3" font-family="Times,serif" font-size="14.00">description :text</text>
<text text-anchor="start" x="502" y="-68.3" font-family="Times,serif" font-size="14.00">size :integer</text>
<text text-anchor="start" x="502" y="-53.3" font-family="Times,serif" font-size="14.00">created_at :timestamp without time zone</text>
<text text-anchor="start" x="502" y="-38.3" font-family="Times,serif" font-size="14.00">updated_at :timestamp without time zone</text>
<text text-anchor="start" x="502" y="-23.3" font-family="Times,serif" font-size="14.00">category_id :integer</text>
<text text-anchor="start" x="502" y="-8.3" font-family="Times,serif" font-size="14.00">user_id :integer</text>
</g>
<!-- ApplicationRecord -->
<g id="node4" class="node"><title>ApplicationRecord</title>
<ellipse fill="none" stroke="black" cx="833" cy="-76" rx="77.1866" ry="18"/>
<text text-anchor="middle" x="833" y="-72.3" font-family="Times,serif" font-size="14.00">ApplicationRecord</text>
</g>
<!-- User -->
<g id="node5" class="node"><title>User</title>
<path fill="none" stroke="black" d="M940,-23C940,-23 1160,-23 1160,-23 1166,-23 1172,-29 1172,-35 1172,-35 1172,-117 1172,-117 1172,-123 1166,-129 1160,-129 1160,-129 940,-129 940,-129 934,-129 928,-123 928,-117 928,-117 928,-35 928,-35 928,-29 934,-23 940,-23"/>
<text text-anchor="middle" x="1050" y="-113.8" font-family="Times,serif" font-size="14.00">User</text>
<polyline fill="none" stroke="black" points="928,-106 1172,-106 "/>
<text text-anchor="start" x="936" y="-90.8" font-family="Times,serif" font-size="14.00">id :integer</text>
<text text-anchor="start" x="936" y="-75.8" font-family="Times,serif" font-size="14.00">name :character varying</text>
<text text-anchor="start" x="936" y="-60.8" font-family="Times,serif" font-size="14.00">email :character varying</text>
<text text-anchor="start" x="936" y="-45.8" font-family="Times,serif" font-size="14.00">created_at :timestamp without time zone</text>
<text text-anchor="start" x="936" y="-30.8" font-family="Times,serif" font-size="14.00">updated_at :timestamp without time zone</text>
</g>
</g>
</svg>
